<svg width="81" height="81" viewBox="0 0 81 81" fill="none" xmlns="http://www.w3.org/2000/svg">
<g filter="url(#filter0_d_6_120)">
<path d="M67.5946 37.0843H13.3167C11.5479 37.0843 10.1139 38.5182 10.1139 40.287V40.6242C10.1139 42.393 11.5479 43.8269 13.3167 43.8269H67.5946C69.3634 43.8269 70.7973 42.393 70.7973 40.6242V40.287C70.7973 38.5182 69.3634 37.0843 67.5946 37.0843Z" fill="#3F7416"/>
<path d="M67.5946 53.9408H13.3167C11.5479 53.9408 10.1139 55.3747 10.1139 57.1435V57.4807C10.1139 59.2495 11.5479 60.6834 13.3167 60.6834H67.5946C69.3634 60.6834 70.7973 59.2495 70.7973 57.4807V57.1435C70.7973 55.3747 69.3634 53.9408 67.5946 53.9408Z" fill="#3F7416"/>
<path d="M67.5946 20.2278H13.3166C11.5478 20.2278 10.1139 21.6617 10.1139 23.4305V23.7676C10.1139 25.5365 11.5478 26.9704 13.3166 26.9704H67.5946C69.3634 26.9704 70.7973 25.5365 70.7973 23.7676V23.4305C70.7973 21.6617 69.3634 20.2278 67.5946 20.2278Z" fill="#3F7416"/>
</g>
<defs>
<filter id="filter0_d_6_120" x="6.1139" y="20.2278" width="68.6834" height="48.4556" filterUnits="userSpaceOnUse" color-interpolation-filters="sRGB">
<feFlood flood-opacity="0" result="BackgroundImageFix"/>
<feColorMatrix in="SourceAlpha" type="matrix" values="0 0 0 0 0 0 0 0 0 0 0 0 0 0 0 0 0 0 127 0" result="hardAlpha"/>
<feOffset dy="4"/>
<feGaussianBlur stdDeviation="2"/>
<feComposite in2="hardAlpha" operator="out"/>
<feColorMatrix type="matrix" values="0 0 0 0 0 0 0 0 0 0 0 0 0 0 0 0 0 0 0.25 0"/>
<feBlend mode="normal" in2="BackgroundImageFix" result="effect1_dropShadow_6_120"/>
<feBlend mode="normal" in="SourceGraphic" in2="effect1_dropShadow_6_120" result="shape"/>
</filter>
</defs>
</svg>
